<svg width="23" height="23" viewBox="0 0 23 23" fill="none" xmlns="http://www.w3.org/2000/svg">
<path d="M12.8196 2.23522C12.5643 1.99386 12.2263 1.85937 11.875 1.85938C11.5237 1.85937 11.1857 1.99386 10.9304 2.23522L4.26988 8.52997C4.06594 8.72296 3.90355 8.95555 3.79266 9.2135C3.68178 9.47145 3.62472 9.74932 3.625 10.0301V17.6888C3.62537 18.2356 3.84282 18.7599 4.22958 19.1464C4.61633 19.5329 5.14073 19.75 5.6875 19.75H7.75C8.29701 19.75 8.82162 19.5327 9.20841 19.1459C9.5952 18.7591 9.8125 18.2345 9.8125 17.6875V14.25C9.8125 14.0676 9.88493 13.8928 10.0139 13.7638C10.1428 13.6349 10.3177 13.5625 10.5 13.5625H13.25C13.4323 13.5625 13.6072 13.6349 13.7361 13.7638C13.8651 13.8928 13.9375 14.0676 13.9375 14.25V17.6875C13.9375 18.2345 14.1548 18.7591 14.5416 19.1459C14.9284 19.5327 15.453 19.75 16 19.75H18.0625C18.6095 19.75 19.1341 19.5327 19.5209 19.1459C19.9077 18.7591 20.125 18.2345 20.125 17.6875V10.0287C20.1249 9.74808 20.0676 9.47041 19.9564 9.2127C19.8453 8.955 19.6828 8.72268 19.4788 8.52997L12.8196 2.23522Z" fill="#3478F7"/>
</svg>
