<svg width="18" height="19" viewBox="0 0 18 19" fill="none" xmlns="http://www.w3.org/2000/svg">
<path d="M7.93038 1.23522C8.18567 0.993859 8.52367 0.859375 8.875 0.859375C9.22633 0.859375 9.56433 0.993859 9.81963 1.23522L16.4801 7.53135C16.8926 7.92047 17.125 8.4636 17.125 9.0301V16.6888C17.125 17.2359 16.9077 17.7605 16.5209 18.1473C16.1341 18.534 15.6095 18.7513 15.0625 18.7513H12.3125C12.0415 18.7513 11.7732 18.698 11.5229 18.5942C11.2726 18.4905 11.0451 18.3384 10.8536 18.1468C10.6621 17.9551 10.5102 17.7276 10.4066 17.4772C10.303 17.2268 10.2498 16.9584 10.25 16.6875V13.25C10.25 13.0676 10.1776 12.8928 10.0486 12.7638C9.91971 12.6349 9.74484 12.5625 9.5625 12.5625H8.1875C8.00516 12.5625 7.8303 12.6349 7.70136 12.7638C7.57243 12.8928 7.5 13.0676 7.5 13.25V16.6875C7.5 17.2345 7.2827 17.7591 6.89591 18.1459C6.50911 18.5327 5.98451 18.75 5.4375 18.75H2.6875C2.14049 18.75 1.61589 18.5327 1.22909 18.1459C0.842299 17.7591 0.625 17.2345 0.625 16.6875V9.02872C0.625 8.46222 0.85875 7.9191 1.27125 7.52997L7.93038 1.23522ZM8.875 2.23347L2.2145 8.53097C2.14688 8.59507 2.093 8.67225 2.05613 8.75782C2.01926 8.84338 2.00016 8.93555 2 9.02872V16.6875C2 16.8698 2.07243 17.0447 2.20136 17.1736C2.3303 17.3025 2.50516 17.375 2.6875 17.375H5.4375C5.61984 17.375 5.7947 17.3025 5.92364 17.1736C6.05257 17.0447 6.125 16.8698 6.125 16.6875V13.25C6.125 12.703 6.3423 12.1784 6.72909 11.7916C7.11589 11.4048 7.64049 11.1875 8.1875 11.1875H9.5625C10.1095 11.1875 10.6341 11.4048 11.0209 11.7916C11.4077 12.1784 11.625 12.703 11.625 13.25V16.6875C11.625 16.8698 11.6974 17.0447 11.8264 17.1736C11.9553 17.3025 12.1302 17.375 12.3125 17.375H15.0625C15.2448 17.375 15.4197 17.3025 15.5486 17.1736C15.6776 17.0447 15.75 16.8698 15.75 16.6875V9.02872C15.75 8.93532 15.731 8.84289 15.6941 8.75707C15.6573 8.67126 15.6033 8.59386 15.5355 8.5296L8.875 2.23347Z" fill="#637D92"/>
</svg>
